<?xml version="1.0" encoding="utf-8"?>
<!-- Designed by Vexels.com - 2019 All Rights Reserved - https://vexels.com/terms-and-conditions/  -->
<svg version="1.1" id="Layer_1" xmlns="http://www.w3.org/2000/svg" xmlns:xlink="http://www.w3.org/1999/xlink" x="0px" y="0px"
	 viewBox="0 0 1200 1200" enable-background="new 0 0 1200 1200" xml:space="preserve">
<g>
	<path fill="#442525" d="M629.518,530.33c-18.248-7.808-32.398-21.327-44.967-36.402c-4.876-5.847-10.143-16.047-16.668-23.512
		c2.263-1.209,4.259-2.945,5.758-5.167c7.598-11.255,3.31-33.199-11.19-36.708c-15.223-3.683-25.623,13.713-27.213,26.515
		c-0.621,5,0.374,10.037,2.977,14.123c-7.184,9.71-10.8,25.84-14.741,34.089c-9.089,19.026-21.329,37.499-42.886,43.095
		c-14.673,3.81-8.453,26.555,6.267,22.733c18.389-4.774,32.958-16.496,44.031-31.663c5.981-8.193,10.638-17.152,14.837-26.359
		c2.794-6.128,5.063-12.933,7.83-19.38c2.82,4.155,6.41,8.949,7.339,10.149c5.055,6.529,10.302,12.894,15.987,18.888
		c11.664,12.296,25.068,23.25,40.739,29.955C631.415,556.589,643.439,536.286,629.518,530.33z"/>
	<g>
		<g>
			<path fill="#EBB34F" d="M1047.308,741.55c5.251-4.269,9.278-10.42,11.017-17.737v0c2.941-12.378-1.464-24.689-10.208-31.524
				c6.279,0.862,11.795,1.633,16.372,2.281c4.407,0.623,7.068-7.157,3.448-10.037c-8.11-6.45-18.657-12.371-30.785-17.807
				c6.407-2.438,10.778-5.677,12.635-9.661c1.953-4.191,3.278-8.006,4.053-11.502c4.834,1.164,9.264,1.078,12.989-1.005
				c17.804-9.951,4.199-27.874-2.736-35.356c5.758-3.221,9.881-9.779,9.783-17.389c-1.467-113.847-72.421-213.864-178.932-238.874
				s-214.987,32.876-267.545,134.037c-4.075,7.843-2.416,16.928,2.937,22.307c0,0,0,0,0,0l-0.043-0.01
				c-30.712,15.765-21.386,25.584-6.722,31.236c-0.709,1.05-1.215,2.165-1.496,3.349c-0.211,0.886-0.29,1.794-0.251,2.719
				c-2.139,4.658-3.724,10.642-4.722,18.212c-0.42,3.188,0.634,6.621,2.997,10.196c-8.652,0.26-15.324,1.013-20.373,1.905
				c-4.292,0.758-5.737,8.328-1.971,10.319c2.831,1.497,5.946,3.153,9.279,4.932c-8.227,3.806-14.89,11.636-17.269,21.65v0
				c-1.884,7.927-0.748,15.824,2.604,22.276c-10.319,5.393-25.586,16.488-15.38,31.489c2.772,4.075,7.672,6.572,13.859,8.147
				c-5.097,41.45,18.798,80.097,56.807,89.022l290.963,68.321c41.099,9.651,83.109-19.104,93.831-64.225v0
				c0.202-0.848,0.328-1.694,0.422-2.535C1049.032,770.013,1066.362,769.475,1047.308,741.55z"/>
			<path fill="#F1CD68" d="M938.613,833.045c29.289,6.877,59.03-5.76,77.59-29.914c-33.42,20.018-68.698,1.661-98.006-15.318
				c-5.335-4.015-12.484-5.693-20.254-4.756c-26.314,4.869-52.525-1.286-76.871-15.288c-16.317-10.736-38.643-17.359-61.694-10.343
				c-16.472,5.799-34.602-2.601-50.039-11.75c-10.982-6.721-21.031-17.367-34.758-17.828c-28.898-1.831-61.702,4.283-81.504-18.488
				c7.2,27.153,27.235,48.946,54.571,55.365"/>
			<path fill="#F1CD68" d="M756.429,404.588c-23.88,31.679-34.81,82.969-7.615,111.45c12.121,12.513,31.805,14.373,49.987,17.261
				c89.459,9.958,171.872,38.976,260.398,52.858c3.403,0.799,9.315,0.62,14.495-1.144c-4.143-111.01-74.366-207.566-178.752-232.076
				c-18.354-4.31-36.765-6.156-54.939-5.746C808.079,358.584,778.384,376.298,756.429,404.588z"/>
			
				<ellipse transform="matrix(0.3552 -0.9348 0.9348 0.3552 176.6611 1287.4694)" fill="#F6E1A4" cx="1021.597" cy="515.676" rx="10.392" ry="6.168"/>
			
				<ellipse transform="matrix(0.9053 -0.4248 0.4248 0.9053 -144.6252 500.0516)" fill="#F6E1A4" cx="1048.947" cy="574.317" rx="6.429" ry="9.971"/>
			
				<ellipse transform="matrix(0.99 -0.1414 0.1414 0.99 -70.1326 142.7053)" fill="#F6E1A4" cx="969.032" cy="564.817" rx="9.577" ry="6.693"/>
			
				<ellipse transform="matrix(0.6192 -0.7852 0.7852 0.6192 -119.3709 756.5523)" fill="#F6E1A4" cx="720.337" cy="501.35" rx="10.214" ry="6.276"/>
			
				<ellipse transform="matrix(0.2259 -0.9742 0.9742 0.2259 324.1716 1322.6259)" fill="#F6E1A4" cx="994.292" cy="457.342" rx="6.765" ry="9.475"/>
			
				<ellipse transform="matrix(0.9657 -0.2597 0.2597 0.9657 -100.5637 190.0828)" fill="#F6E1A4" cx="669.07" cy="475.616" rx="9.65" ry="6.642"/>
			
				<ellipse transform="matrix(0.6871 -0.7266 0.7266 0.6871 -85.7791 667.7523)" fill="#F6E1A4" cx="732.324" cy="433.46" rx="6.641" ry="9.652"/>
			
				<ellipse transform="matrix(0.6552 -0.7555 0.7555 0.6552 -8.1239 775.8895)" fill="#F6E1A4" cx="845.925" cy="396.845" rx="10.174" ry="6.3"/>
			
				<ellipse transform="matrix(0.7859 -0.6183 0.6183 0.7859 -57.7901 671.0345)" fill="#F6E1A4" cx="940.17" cy="418.974" rx="9.997" ry="6.412"/>
			
				<ellipse transform="matrix(0.6192 -0.7852 0.7852 0.6192 -21.9839 859.8748)" fill="#F6E1A4" cx="875.559" cy="452.603" rx="10.214" ry="6.276"/>
			
				<ellipse transform="matrix(0.5906 -0.807 0.807 0.5906 62.3051 878.5746)" fill="#F6E1A4" cx="897.033" cy="377.882" rx="6.694" ry="9.576"/>
			
				<ellipse transform="matrix(0.8856 -0.4644 0.4644 0.8856 -88.9724 405.2282)" fill="#F6E1A4" cx="778.2" cy="383.244" rx="9.825" ry="6.524"/>
			<path fill="#9FB831" d="M600.522,632.411c0,0-38.254,13.514-23.537,35.145s89.351-1.158,98.599,29.273
				c8.275,27.23,105.199,28.584,139.733,26.69c34.534-1.894,68.596,60.465,94.172,28.254c25.576-32.21,96.008,64.82,103.622,8.187
				c0,0,68.669,28.433,31.556-22.145L600.522,632.411z"/>
			<path fill="#543113" d="M1023.981,747.321l-414.088-97.232c-14.981-3.518-24.041-19.852-20.132-36.299v0
				c3.908-16.447,19.363-27.025,34.344-23.508l414.088,97.232c14.981,3.518,24.04,19.852,20.132,36.299v0
				C1054.417,740.26,1038.962,750.839,1023.981,747.321z"/>
			<path fill="#E9A829" d="M830.916,614.842c24.947,7.534,183.616,27.217,237.02,69.69c3.621,2.88,0.96,10.661-3.448,10.037
				c-55.407-7.837-246.177-33.53-315.973-26.14c-0.639,0.068-1.242-0.049-1.8-0.355c-10.066-5.521-108.129-59.28-148.965-80.866
				c-3.766-1.991-2.321-9.561,1.971-10.319C624.312,572.544,687.318,571.477,830.916,614.842z"/>
			<path fill="#CE4747" d="M1054.601,636.686c-5.307,17.613-60.537,19.836-124.305,4.862c-50.88-11.947-91.974-31.268-104.89-47.789
				c-2.423-3.1-7.161-1.601-7.973,2.499c-0.373,1.884-0.7,3.888-0.981,6.017c-0.211,1.601-0.05,3.264,0.463,4.976
				c0.958,3.201-1.31,6.595-4.451,6.675c-22.12,0.561-50.826-2.657-81.521-9.865c-61.283-14.39-108.369-39.476-109.122-57.485
				c-2.139,4.658-3.724,10.642-4.722,18.212c-2.432,18.44,44.437,45.075,108.87,60.204c48.077,11.289,89.304,12.068,110.407,4.754
				c1.201-0.416,2.472-0.25,3.533,0.406c19.521,12.073,49.778,23.96,85.413,32.327c64.433,15.13,116.623,11.404,124.464-5.416
				C1053.54,649.009,1055.02,642.31,1054.601,636.686z"/>
			<path fill="#D45959" d="M1064.091,609.201c-3.446,1.928-7.478,2.66-11.542,1.706l-414.678-97.37
				c-2.979-0.699-5.514-2.221-7.539-4.255l-0.043-0.01c-30.713,15.766-21.386,25.585-6.72,31.236
				c-0.709,1.049-1.216,2.165-1.498,3.349c-4.306,18.12,44.437,45.075,108.87,60.204c48.913,11.485,92.8,12.852,112.992,4.918
				c19.709,12.144,50.618,24.176,86.362,32.569c53.699,12.609,101.343,13.023,118.221,2.322c6.905,2.674,13.255,3.512,18.311,0.686
				C1084.631,634.606,1071.026,616.684,1064.091,609.201z"/>
			<path fill="#9FB831" d="M1064.091,609.201c-3.446,1.928-7.478,2.66-11.542,1.706l-414.678-97.37
				c-2.979-0.699-5.514-2.221-7.539-4.255l-0.043-0.01c-55.958,28.725,20.995,37.712,20.995,37.712
				c-18.683,54.034,105.52-3.965,113.894,36.217c8.374,40.182,66.905-0.435,96.937,16.62c30.032,17.055,117.482,58.034,124.85,27.03
				c7.552-31.781,56.964,30.505,79.862,17.707C1084.631,634.606,1071.026,616.684,1064.091,609.201z"/>
		</g>
		<g>
			
				<ellipse transform="matrix(0.2336 -0.9723 0.9723 0.2336 95.9859 1121.7179)" fill="#D66968" cx="759.543" cy="499.971" rx="21.035" ry="39.205"/>
			
				<ellipse transform="matrix(0.2336 -0.9723 0.9723 0.2336 207.8129 1364.4255)" fill="#D66968" cx="969.416" cy="550.389" rx="21.035" ry="39.205"/>
			<g>
				<path fill="#503729" d="M758.82,460.949c-2.624-0.151-4.899-2.08-5.382-4.779c-0.565-3.159,1.538-6.179,4.697-6.744
					l37.551-6.716l-37.44-29.151c-2.532-1.971-2.986-5.624-1.015-8.156c1.973-2.532,5.621-2.988,8.156-1.015l47.728,37.16
					c1.809,1.41,2.621,3.753,2.071,5.979c-0.55,2.227-2.36,3.923-4.618,4.327l-50.385,9.013
					C759.723,460.949,759.266,460.975,758.82,460.949z"/>
			</g>
			<g>
				<path fill="#503729" d="M972.661,513.062c2.364,1.149,5.291,0.576,7.03-1.544c2.035-2.481,1.674-6.143-0.807-8.179
					l-29.494-24.193l46.907-7.164c3.172-0.484,5.352-3.451,4.867-6.623c-0.486-3.173-3.447-5.352-6.623-4.867l-59.795,9.132
					c-2.267,0.347-4.12,1.996-4.726,4.207c-0.607,2.213,0.145,4.576,1.918,6.031l39.574,32.463
					C971.873,512.621,972.258,512.866,972.661,513.062z"/>
			</g>
			<path fill="#503729" d="M829.572,480.558c-6.23,25.935,7.249,49.003,27.249,53.807c20,4.805,42.637-10.248,48.717-35.558
				L829.572,480.558z"/>
			<path fill="#D66968" d="M828.719,501.52c2.769,16.556,13.757,29.399,28.103,32.845c12.793,3.073,26.659-1.988,36.586-12.653
				C877.302,504.543,852.309,499.293,828.719,501.52z"/>
		</g>
	</g>
	<g>
		<g>
			<path fill="#A43729" d="M150.469,344.234l-35.576,57.074c-9.118,14.628-11.879,32.588-7.616,49.548l75.879,301.922
				c5.577,22.189,26.415,36.611,48.288,33.42l224.671-32.78c21.873-3.191,37.722-22.966,36.726-45.823l-13.55-311.016
				c-0.761-17.471-8.538-33.894-21.456-45.306l-50.4-44.529C327.653,236.253,206.785,253.888,150.469,344.234z"/>
			<path fill="#E28E23" d="M270.137,503.074l-23.602,6.962c-4.008,1.182-8.254-1.13-9.436-5.138l-79.344-269.001
				c-1.182-4.008,1.13-8.254,5.138-9.436l23.602-6.962c4.008-1.182,8.254,1.13,9.436,5.138l79.344,269.001
				C276.457,497.646,274.145,501.892,270.137,503.074z"/>
			<path fill="#E9A829" d="M224.344,521.12l-21.114,12.637c-3.585,2.146-8.275,0.968-10.42-2.617L48.781,290.488
				c-2.146-3.585-0.968-8.275,2.617-10.42l21.114-12.637c3.585-2.146,8.275-0.968,10.42,2.617l144.028,240.651
				C229.108,514.285,227.93,518.974,224.344,521.12z"/>
			<path fill="#E28E23" d="M323.91,499.185l-24.555,1.6c-4.17,0.272-7.803-2.918-8.075-7.087l-18.232-279.866
				c-0.272-4.17,2.918-7.803,7.087-8.075l24.555-1.6c4.17-0.272,7.803,2.918,8.075,7.087l18.232,279.866
				C331.268,495.28,328.079,498.914,323.91,499.185z"/>
			<path fill="#E28E23" d="M390.1,466.796l-24.349,3.553c-4.135,0.603-8.011-2.286-8.614-6.421l-40.491-277.521
				c-0.603-4.135,2.286-8.011,6.421-8.614l24.349-3.553c4.135-0.603,8.011,2.286,8.614,6.421l40.491,277.521
				C397.124,462.317,394.235,466.193,390.1,466.796z"/>
			<path fill="#E28E23" d="M293.38,502.173l-24.124,4.852c-4.096,0.824-8.122-1.854-8.946-5.95l-61.754-307.044
				c-0.824-4.096,1.854-8.122,5.95-8.946l24.124-4.852c4.096-0.824,8.122,1.854,8.946,5.95l61.754,307.044
				C300.154,497.324,297.477,501.349,293.38,502.173z"/>
			<path fill="#E9A829" d="M253.808,532.42l-24.679-0.336c-4.191-0.057-7.573-3.533-7.516-7.723l3.833-281.28
				c0.057-4.191,3.533-7.573,7.723-7.516l24.679,0.336c4.191,0.057,7.573,3.533,7.516,7.723l-3.833,281.28
				C261.474,529.095,257.999,532.478,253.808,532.42z"/>
			<path fill="#F0C62F" d="M259.958,523.164l-22.466,10.039c-3.815,1.705-8.331-0.022-10.036-3.837L113.033,273.311
				c-1.705-3.815,0.022-8.331,3.837-10.036l22.466-10.039c3.815-1.705,8.331,0.022,10.036,3.837l114.423,256.056
				C265.5,516.943,263.773,521.459,259.958,523.164z"/>
			<path fill="#E9A829" d="M441.76,505.737l-24.605-0.335c-4.178-0.057-7.55-3.522-7.493-7.7l3.822-280.433
				c0.057-4.178,3.522-7.55,7.7-7.493l24.605,0.335c4.178,0.057,7.55,3.522,7.493,7.7l-3.822,280.433
				C449.403,502.422,445.938,505.794,441.76,505.737z"/>
			<path fill="#E9A829" d="M353.946,551.463l-24.555,1.6c-4.17,0.272-7.803-2.918-8.075-7.087l-18.232-279.866
				c-0.272-4.17,2.918-7.803,7.087-8.075l24.555-1.6c4.17-0.272,7.803,2.918,8.075,7.087l18.232,279.866
				C361.305,547.557,358.116,551.191,353.946,551.463z"/>
			<path fill="#F0C62F" d="M293.564,595.58l-24.629,1.604c-4.182,0.272-7.827-2.926-8.099-7.109l-18.287-280.712
				c-0.272-4.182,2.926-7.827,7.109-8.099l24.629-1.604c4.182-0.272,7.827,2.926,8.099,7.109l18.287,280.712
				C300.945,591.662,297.746,595.307,293.564,595.58z"/>
			<path fill="#F0C62F" d="M431.868,539.578l-24.349,3.553c-4.135,0.603-8.011-2.286-8.614-6.421l-40.491-277.521
				c-0.603-4.135,2.286-8.011,6.421-8.614l24.349-3.553c4.135-0.603,8.011,2.286,8.614,6.421l40.491,277.521
				C438.892,535.098,436.003,538.975,431.868,539.578z"/>
			<path fill="#CB4C2C" d="M457.281,397.92c-101.182,70.497-241.668,78.993-351.212,27.275c-1.299,8.442-0.925,17.177,1.207,25.661
				l75.879,301.922c5.577,22.189,26.415,36.611,48.288,33.42l224.671-32.78c21.873-3.191,37.722-22.966,36.726-45.824
				l-13.55-311.016c-0.278-6.371-1.498-12.599-3.551-18.499C470.563,385.39,464.621,392.176,457.281,397.92z"/>
			<path fill="#DB5938" d="M475.741,378.079c-5.177,7.311-11.119,14.097-18.459,19.841
				c-83.137,57.924-192.797,73.954-290.036,49.153c39.581,95.401,98.193,187.433,194.981,226.559
				c40.504,16.651,88.666,20.436,129.022-2.607l-11.956-274.447C479.014,390.207,477.793,383.979,475.741,378.079z"/>
		</g>
		<g>
			<g>
				<circle fill="#442525" cx="228.678" cy="584.213" r="23.271"/>
				<circle fill="#FDF9E5" cx="233.496" cy="573.453" r="8.715"/>
				<circle fill="#FDF9E5" cx="224.567" cy="595.238" r="5.589"/>
			</g>
			<g>
				<circle fill="#442525" cx="411.889" cy="558.758" r="23.271"/>
				<circle fill="#FDF9E5" cx="416.707" cy="547.999" r="8.715"/>
				<circle fill="#FDF9E5" cx="407.778" cy="569.784" r="5.589"/>
			</g>
			
				<ellipse transform="matrix(0.9905 -0.1376 0.1376 0.9905 -86.0677 37.8884)" fill="#A62C1E" cx="230.981" cy="641.399" rx="36.397" ry="19.528"/>
			
				<ellipse transform="matrix(0.9905 -0.1376 0.1376 0.9905 -79.7233 66.7879)" fill="#A62C1E" cx="443.159" cy="609.966" rx="36.397" ry="19.528"/>
			<path fill="#442525" d="M297.926,601.346c0.045,0.461,0.092,0.921,0.157,1.384c2.571,18.508,19.66,31.428,38.168,28.856
				s31.428-19.66,28.856-38.168c-0.064-0.462-0.144-0.919-0.226-1.374L297.926,601.346z"/>
			<path fill="#A62C1E" d="M305.06,619.062c7.2,9.085,18.878,14.235,31.191,12.525c11.732-1.63,21.212-9.097,25.93-19.057
				C343.948,604.227,322.241,608.55,305.06,619.062z"/>
		</g>
	</g>
	<g>
		<path fill="#442525" d="M1151.655,697.585c-6.521-35.811-51.625-52.084-79.405-67.994c-13.187-7.553-25.076,12.809-11.898,20.357
			c18.074,10.352,38.847,19.48,55.099,32.622c7.177,5.804,16.525,16.5,12.804,26.643c-2.676,7.295-10.39,9.454-16.949,7.034
			c-1.445-12.268-10.443-23.744-23.155-25.724c-5.76-0.897-9.886,0.771-13.312,5.417c-6.709,9.099-5.706,22.333,1.442,30.825
			c4.993,5.93,12.995,9.145,20.74,8.73c0.013,0.002,0.026,0.002,0.038,0.003C1124.029,751.491,1157.319,728.698,1151.655,697.585z"
			/>
		<path fill="#442525" d="M164.07,642.351c-39.557-15.582-60.11-54.054-68.801-93.564c9.398-8.138,10.599-25.563-4.392-31.506
			c-9.115-3.613-20.045,0.022-25.455,8.112c-7.23,10.813-3.047,22.992,4.657,32.07c1.163,1.37,2.422,2.332,3.719,2.965
			c11.374,45.872,38.266,86.64,84.005,104.657C171.923,670.646,178.047,647.857,164.07,642.351z"/>
		<path fill="#442525" d="M690.06,836.375c-12.609-8.074-26.437-17.712-31.754-32.436c-4.945-13.693-0.23-28.763,15.263-31.159
			c14.948-2.311,8.599-25.031-6.267-22.733c-23.059,3.565-36.803,26.606-34.206,48.818c2.401,20.542,15.38,35.789,30.927,47.923
			c-4.349,5.395-7.002,12.126-8.025,20.116c-0.578,4.515,4.043,10.74,8.654,11.367c17.597,2.393,30.963-7.559,32.788-25.432
			c0.312-3.056-0.441-5.456-1.8-7.268C695.423,842.098,693.664,838.683,690.06,836.375z"/>
		<path fill="#442525" d="M951.771,979.989c0.018-0.179,0.073-0.332,0.084-0.515c3.764-58.832-12.732-117.684-46.631-165.923
			c-8.658-12.32-29.107-0.553-20.357,11.899c30.842,43.887,45.984,95.736,43.621,149.183c-2.839,4.084-2.482,9.188,0.123,13.312
			c-0.045,0.436-0.134,0.842-0.136,1.307c-0.068,14.391,6.728,26.264,17.996,34.819c6.769,5.138,18.764-1.733,17.738-10.178
			C962.678,1001.307,958.628,990.144,951.771,979.989z"/>
		<path fill="#442525" d="M523.623,849.985c-4.303-2.328-9.253-2.734-13.945-1.75c-1.58-42.854-21.712-84.229-55.209-111.539
			c-11.663-9.509-28.44,7.075-16.67,16.67c34.39,28.038,52.034,70.335,47.728,114.497c-0.379,3.886,0.919,6.746,3.058,8.622
			c0.772,3.868,4.076,7.091,7.822,8.471c3.727,3.101,9.349,4.053,13.566,1.303c1.277-0.658,1.476-0.855,0.596-0.592
			c0.816-0.298,1.641-0.565,2.476-0.802c1.675-0.515,3.342-0.971,4.981-1.6c4.748-1.822,8.944-4.747,11.711-9.096
			C535.051,865.819,532.349,854.705,523.623,849.985z M511.996,874.065c0.003-0.005,0.008-0.016,0.011-0.021
			c-0.002,0.015-0.003,0.023-0.004,0.037c-0.004,0.007-0.01,0.018-0.013,0.024C511.991,874.092,511.995,874.079,511.996,874.065z"/>
		<path fill="#442525" d="M321.234,958.913c-6.174-17.703-13.898-34.779-19.248-52.866c-11.871-40.134-18.43-81.428-19.935-123.237
			c-0.545-15.126-24.122-15.199-23.575,0c1.257,34.94,5.781,69.752,13.896,103.773c4.12,17.273,9.17,34.33,15.106,51.065
			c2.698,7.608,5.584,15.15,8.647,22.618c0.571,1.393,3.611,6.544,2.917,8.696c-0.833,2.586-9.046,6.758-11.049,8.254
			c-9.106,6.802-6.496,21.476,5.949,21.966c16.778,0.661,30.773-9.993,34.907-26.216
			C330.526,966.385,326.536,960.852,321.234,958.913z"/>
	</g>
	<path fill="#D45959" d="M603.96,234.142c-23.833-30.307-96.284-45.238-91.674,15.471c4.494,59.18,94.78,99.151,94.78,99.151
		s85.754-44.891,87.73-100.387C697.158,182.064,624.367,203.283,603.96,234.142z"/>
</g>
</svg>
