<?xml version="1.0" encoding="utf-8"?>
<!-- Designed by Vexels.com - 2019 All Rights Reserved - https://vexels.com/terms-and-conditions/  -->
<svg version="1.1" id="Layer_1" xmlns="http://www.w3.org/2000/svg" xmlns:xlink="http://www.w3.org/1999/xlink" x="0px" y="0px"
	 viewBox="0 0 1200 1200" enable-background="new 0 0 1200 1200" xml:space="preserve">
<g>
	<path fill="#E2A238" d="M92.334,883.514c9.479,9.125,20.719,18.2,33.883,27.196c179.691,122.794,438.183-65.587,575.142-176.13
		c118.344-95.518,241.15-208.109,277.03-362.333c11.878-51.056,10.997-106.393-10.873-154.033
		C854.513-27.937,646.575,273.904,551.14,357.539c-84.697,74.224-176.255,140.626-273.193,197.994
		C171.809,618.342-40.374,755.769,92.334,883.514z"/>
	<path fill="#C03C2B" d="M169.064,720.762c150.567-81.563,428.133-252.161,623.803-491.412
		c38.101-46.586,104.727-57.844,155.651-25.77l2.116,1.333c60.629,38.186,73.961,120.936,28.324,176.174
		C858.294,527.132,610.021,787.64,273.747,933.888c-56.245,24.461-121.861,2.669-151.713-50.91l0,0
		C89.861,825.236,110.944,752.246,169.064,720.762z"/>
	<path fill="#D35040" d="M178.678,765.835c3.857,2.647,7.69,4.938,11.02,6.739c53.739,29.056,95.705,9.048,141.192-22.901
		c162.225-113.944,334.598-215.678,460.026-366.213c54.335-65.211,130.433-105.641,91-198.054
		c-33.572,1.003-66.366,16.21-89.049,43.945C597.203,468.593,319.65,639.187,169.073,720.757
		C143.356,734.692,161.262,753.885,178.678,765.835z"/>
	<path fill="#EBB34F" d="M256.336,1009.212c9.479,9.125,20.719,18.2,33.883,27.196c179.691,122.794,438.183-65.587,575.142-176.129
		c118.344-95.518,241.15-208.109,277.03-362.333c11.878-51.056,10.997-106.393-10.873-154.033
		c-113.003-246.152-320.942,55.689-416.376,139.324c-84.697,74.224-176.255,140.626-273.193,197.994
		C335.811,744.04,123.628,881.467,256.336,1009.212z"/>
	<path fill="#F1CD68" d="M401.406,994.73c125.72,37.145,241.656-34.634,348.587-100.004
		c141.044-86.225,210.552-190.544,288.584-291.441c63.82-82.521,104.983-180.8,82.229-280.584
		c-115.001-206.54-313.171,79.478-405.665,160.536c-84.697,74.224-176.255,140.626-273.193,197.994
		c-59.221,35.045-151.435,93.325-198.354,160.188C264.939,914.846,326.911,974.413,401.406,994.73z"/>
	<g>
		<path fill="#D7BB2D" d="M245.381,791.204c-5.761,0.124-11.49-2.429-15.219-7.386c-2.948-3.919-28.577-39.359-21.288-77.107
			c3.794-19.635,16.065-36.23,35.493-47.991c38.991-23.609,70.498-1.511,91.354,13.107c22.523,15.791,29.509,18.778,41.115,9.401
			c8.246-6.661,8.075-12.119-8.768-40.464c-14.764-24.842-39.473-66.421,7.294-97.162c43.426-28.55,72.912-1.608,92.418,16.224
			c20.476,18.724,29.884,25.037,47.515,16.917c7.6-3.499,9.944-6.361,10.205-7.169c1.107-3.422-5.887-15.84-9.642-22.512
			c-11.727-20.826-31.357-55.682,0.555-88.845c34.051-35.387,65.015-17.207,85.512-5.177c18.826,11.051,29.377,16.411,45.005,7.69
			c10.626-5.93,11.737-6.549,0.938-30.035c-10.249-22.294-25.737-55.984,4.985-91.125c32.737-37.451,68.37-19.799,91.946-8.126
			c25.615,12.684,31.698,13.151,40.687,3.146c8.853-9.852,8.227-13.648-5.586-33.852c-13.176-19.275-35.228-51.536,0.097-90.541
			c6.886-7.6,18.637-8.182,26.232-1.298c7.603,6.886,8.186,18.63,1.3,26.233c-14.947,16.504-11.168,23.865,3.036,44.643
			c11.98,17.52,32.026,46.845,2.549,79.643c-29.42,32.739-62.748,16.233-84.795,5.313c-25.384-12.567-34.666-15.396-47.503-0.712
			c-14.226,16.272-9.509,28.734,0.802,51.159c9.408,20.459,25.151,54.7-16.588,77.989c-34.922,19.482-63.197,2.89-81.907-8.093
			c-20.768-12.191-26.744-14.82-39.94-1.101c-11.083,11.516-8.749,20.376,5.042,44.863c8.784,15.598,18.738,33.274,12.615,52.183
			c-4.009,12.375-13.823,22.014-30.007,29.464c-41.696,19.205-69.629-6.344-88.115-23.243
			c-20.55-18.787-28.589-24.665-46.953-12.598c-13.862,9.113-15.134,14.553,4.237,47.148c14.144,23.806,35.523,59.781,0.177,88.335
			c-34.638,27.975-65.41,6.395-85.78-7.883c-23.118-16.203-34.185-21.803-50.795-11.746c-10.452,6.326-16.415,13.896-18.237,23.148
			c-3.612,18.347,9.255,40.794,14.518,47.895c6.091,8.222,4.408,19.846-3.791,25.968
			C252.869,789.915,249.116,791.124,245.381,791.204z"/>
	</g>
	<g>
		<path fill="#F2D232" d="M251.095,782.633c-5.761,0.124-11.49-2.429-15.219-7.386c-2.948-3.919-28.577-39.359-21.288-77.107
			c3.794-19.635,16.065-36.23,35.493-47.991c38.991-23.609,70.498-1.511,91.354,13.107c22.523,15.791,29.509,18.778,41.115,9.401
			c8.246-6.661,8.075-12.119-8.768-40.464c-14.764-24.842-39.473-66.421,7.294-97.162c43.426-28.55,72.912-1.608,92.418,16.224
			c20.476,18.724,29.884,25.037,47.515,16.917c7.6-3.499,9.944-6.361,10.205-7.169c1.107-3.422-5.887-15.84-9.642-22.512
			c-11.727-20.826-31.357-55.682,0.555-88.845c34.051-35.387,65.015-17.207,85.512-5.177c18.826,11.051,29.377,16.411,45.005,7.69
			c10.626-5.93,11.737-6.549,0.938-30.035c-10.249-22.294-25.737-55.984,4.985-91.125c32.737-37.451,68.37-19.799,91.946-8.126
			c25.615,12.684,31.698,13.151,40.687,3.146c8.853-9.852,8.227-13.648-5.586-33.852c-13.176-19.275-35.228-51.536,0.097-90.541
			c6.886-7.6,18.637-8.182,26.232-1.298c7.603,6.886,8.186,18.63,1.3,26.233c-14.947,16.504-11.168,23.865,3.036,44.643
			c11.98,17.52,32.026,46.845,2.549,79.643c-29.42,32.739-62.748,16.233-84.795,5.313c-25.384-12.567-34.666-15.396-47.503-0.712
			c-14.226,16.272-9.509,28.734,0.802,51.159c9.408,20.459,25.151,54.7-16.588,77.989c-34.922,19.482-63.197,2.89-81.907-8.093
			c-20.768-12.191-26.744-14.82-39.94-1.101c-11.083,11.516-8.749,20.376,5.042,44.863c8.784,15.598,18.738,33.274,12.615,52.183
			c-4.009,12.375-13.823,22.014-30.007,29.463c-41.696,19.205-69.629-6.344-88.115-23.243
			c-20.55-18.787-28.589-24.666-46.953-12.598c-13.862,9.113-15.134,14.553,4.237,47.148c14.144,23.806,35.523,59.781,0.177,88.335
			c-34.638,27.975-65.41,6.395-85.78-7.883c-23.118-16.203-34.185-21.803-50.795-11.746c-10.452,6.326-16.415,13.896-18.237,23.148
			c-3.612,18.347,9.255,40.794,14.518,47.895c6.091,8.222,4.408,19.846-3.791,25.968
			C258.584,781.344,254.831,782.552,251.095,782.633z"/>
	</g>
	<g>
		<g>
			<path fill="#503729" d="M759.688,782.986c-26.195,15.844-61.987,6.458-83.254-21.833c-4.012-5.338-2.937-12.917,2.399-16.929
				c5.339-4.005,12.915-2.938,16.929,2.399c13.778,18.33,35.88,25.068,51.411,15.674c15.531-9.394,19.825-32.099,9.988-52.81
				c-2.866-6.033-0.297-13.248,5.732-16.108c6.033-2.864,13.243-0.297,16.107,5.734
				C794.185,731.085,785.884,767.141,759.688,782.986z"/>
		</g>
		<g>
			<path fill="#503729" d="M520.535,729.659c-21.563,13.042-28.47,41.095-15.427,62.658c4.393,7.263,10.511,12.817,17.488,16.552
				c16.358-19.58,40.233-33.124,65.928-29.601c2.679-11.247,1.126-23.508-5.331-34.182
				C570.15,723.523,542.097,716.616,520.535,729.659z"/>
			<circle fill="#FDF9E5" cx="544.499" cy="745.587" r="17.089"/>
		</g>
		
			<ellipse transform="matrix(0.8557 -0.5176 0.5176 0.8557 -364.701 432.2652)" fill="#D66968" cx="592.577" cy="869.937" rx="71.368" ry="38.291"/>
		
			<ellipse transform="matrix(0.8557 -0.5176 0.5176 0.8557 -210.9238 576.9119)" fill="#D66968" cx="928.775" cy="666.582" rx="71.368" ry="38.291"/>
		<g>
			<path fill="#503729" d="M816.058,555.904c20.711-14.356,49.139-9.204,63.495,11.507c4.836,6.976,7.407,14.829,7.967,22.723
				c-24.553,6.935-46.667,23.198-53.944,48.091c-11.36-2.148-21.918-8.573-29.025-18.826
				C790.195,598.688,795.347,570.261,816.058,555.904z"/>
			<circle fill="#FDF9E5" cx="837.341" cy="572.302" r="17.089"/>
		</g>
	</g>
</g>
</svg>
